<svg width="189" height="189" viewBox="0 0 189 189" fill="none" xmlns="http://www.w3.org/2000/svg">
<circle cx="94.6543" cy="94.3262" r="93.4685" stroke="white" stroke-width="1.7154"/>
<circle cx="94.6515" cy="94.3263" r="84.0828" stroke="white" stroke-width="1.7154" stroke-dasharray="18.77 18.77"/>
<path d="M51.4258 59.2594C66.0686 43.5451 104.033 21.938 138.747 61.2237M138.747 61.2237L139.997 49.9736M138.747 61.2237H127.854" stroke="white" stroke-width="2"/>
<path d="M137.321 129.616C123.571 145.509 86.8571 167.188 50 126.759M50 126.759V138.723M50 126.759L60.8929 128.009" stroke="white" stroke-width="2"/>
<path d="M85.3594 63.7237L77.6809 66.0451L67.3237 63.7237L62.6809 69.7951L65.0023 78.0094L61.6094 87.1166L53.5737 90.688V99.2594L61.6094 101.759L66.2523 110.509L62.6809 120.331L68.3952 126.045L78.9309 122.831L86.6094 126.045L90.7166 135.509H99.4666L102.502 126.045L110.538 122.831L120.002 127.474L127.145 120.331L123.038 110.509L127.145 101.759L135.895 99.2594V90.688L125.895 85.8666L123.038 78.0094L127.145 69.7951L120.002 62.6523L110.538 66.0451L102.502 62.6523L99.4666 53.7237H89.288L85.3594 63.7237Z" fill="#E2F1FF"/>
<path d="M85.1765 86.2235L72.3193 94.0806L85.1765 102.473" stroke="#192D4B" stroke-width="2"/>
<path d="M103.747 86.0449L116.604 93.902L103.747 102.473" stroke="#192D4B" stroke-width="2"/>
</svg>
